<svg width="19" height="20" viewBox="0 0 19 20" fill="none" xmlns="http://www.w3.org/2000/svg">
<path d="M9.2979 0.496094C6.77481 0.496094 6.45754 0.507716 5.4662 0.551878C4.47487 0.598365 3.79964 0.754097 3.20809 0.984208C2.5876 1.21759 2.02557 1.58369 1.56129 2.0569C1.08837 2.52141 0.722324 3.08338 0.488602 3.7037C0.258491 4.29409 0.101598 4.97047 0.0562727 5.95832C0.01211 6.95198 0.000488281 7.26809 0.000488281 9.79467C0.000488281 12.3189 0.01211 12.635 0.0562727 13.6264C0.10276 14.6165 0.258491 15.2918 0.488602 15.8833C0.726848 16.4946 1.04412 17.0129 1.56129 17.5301C2.0773 18.0473 2.59563 18.3657 3.20693 18.6028C3.79964 18.8329 4.4737 18.9898 5.46388 19.0351C6.45638 19.0793 6.77249 19.0909 9.2979 19.0909C11.8233 19.0909 12.1383 19.0793 13.1308 19.0351C14.1198 18.9886 14.7973 18.8329 15.3889 18.6028C16.009 18.3693 16.5706 18.0032 17.0345 17.5301C17.5517 17.0129 17.8689 16.4946 18.1072 15.8833C18.3361 15.2918 18.493 14.6165 18.5395 13.6264C18.5837 12.635 18.5953 12.3189 18.5953 9.7935C18.5953 7.26809 18.5837 6.95198 18.5395 5.95948C18.493 4.97047 18.3361 4.29409 18.1072 3.7037C17.8735 3.08336 17.5075 2.52139 17.0345 2.0569C16.5704 1.58351 16.0083 1.21739 15.3877 0.984208C14.795 0.754097 14.1186 0.597203 13.1296 0.551878C12.1371 0.507716 11.8221 0.496094 9.29557 0.496094H9.29906H9.2979ZM8.46462 2.17195H9.29906C11.7815 2.17195 12.0755 2.18009 13.0552 2.22541C13.9617 2.26609 14.4545 2.41833 14.7822 2.54501C15.2157 2.71353 15.526 2.91574 15.8514 3.24115C16.1768 3.56656 16.3779 3.8757 16.5464 4.31036C16.6742 4.63693 16.8253 5.12969 16.866 6.03619C16.9113 7.0159 16.9206 7.30993 16.9206 9.79118C16.9206 12.2724 16.9113 12.5676 16.866 13.5473C16.8253 14.4538 16.6731 14.9454 16.5464 15.2732C16.3973 15.6769 16.1594 16.0419 15.8502 16.3412C15.5248 16.6666 15.2157 16.8677 14.781 17.0362C14.4556 17.164 13.9629 17.3151 13.0552 17.3569C12.0755 17.4011 11.7815 17.4116 9.29906 17.4116C6.81665 17.4116 6.52146 17.4011 5.54174 17.3569C4.63525 17.3151 4.14365 17.164 3.81591 17.0362C3.41206 16.8873 3.0467 16.6499 2.74671 16.3412C2.43728 16.0414 2.199 15.676 2.0494 15.272C1.92273 14.9454 1.77048 14.4527 1.72981 13.5462C1.68564 12.5665 1.67635 12.2724 1.67635 9.78885C1.67635 7.30645 1.68564 7.01358 1.72981 6.03386C1.77164 5.12737 1.92273 4.6346 2.05057 4.30687C2.21908 3.87338 2.4213 3.56308 2.74671 3.23767C3.07212 2.91226 3.38126 2.7112 3.81591 2.54269C4.14365 2.41485 4.63525 2.26376 5.54174 2.22193C6.39943 2.18241 6.73181 2.17079 8.46462 2.16963V2.17195ZM14.2616 3.71532C14.115 3.71532 13.97 3.74418 13.8346 3.80025C13.6992 3.85632 13.5762 3.9385 13.4726 4.0421C13.369 4.1457 13.2869 4.26869 13.2308 4.40406C13.1747 4.53942 13.1459 4.6845 13.1459 4.83101C13.1459 4.97753 13.1747 5.1226 13.2308 5.25797C13.2869 5.39333 13.369 5.51632 13.4726 5.61992C13.5762 5.72352 13.6992 5.8057 13.8346 5.86177C13.97 5.91784 14.115 5.9467 14.2616 5.9467C14.5575 5.9467 14.8412 5.82915 15.0505 5.61992C15.2597 5.41069 15.3772 5.12691 15.3772 4.83101C15.3772 4.53511 15.2597 4.25133 15.0505 4.0421C14.8412 3.83287 14.5575 3.71532 14.2616 3.71532ZM9.29906 5.01928C8.66576 5.0094 8.03681 5.12561 7.44885 5.36113C6.86089 5.59665 6.32565 5.94678 5.8743 6.39114C5.42295 6.8355 5.06451 7.36521 4.81985 7.94943C4.57518 8.53365 4.44918 9.1607 4.44918 9.79408C4.44918 10.4275 4.57518 11.0545 4.81985 11.6387C5.06451 12.223 5.42295 12.7527 5.8743 13.197C6.32565 13.6414 6.86089 13.9915 7.44885 14.227C8.03681 14.4626 8.66576 14.5788 9.29906 14.5689C10.5525 14.5493 11.748 14.0377 12.6275 13.1443C13.507 12.251 13.9999 11.0477 13.9999 9.79408C13.9999 8.54048 13.507 7.33714 12.6275 6.44382C11.748 5.5505 10.5525 5.03884 9.29906 5.01928ZM9.29906 6.69398C10.1211 6.69398 10.9095 7.02053 11.4908 7.60181C12.072 8.18308 12.3986 8.97146 12.3986 9.7935C12.3986 10.6155 12.072 11.4039 11.4908 11.9852C10.9095 12.5665 10.1211 12.893 9.29906 12.893C8.47702 12.893 7.68864 12.5665 7.10737 11.9852C6.52609 11.4039 6.19954 10.6155 6.19954 9.7935C6.19954 8.97146 6.52609 8.18308 7.10737 7.60181C7.68864 7.02053 8.47702 6.69398 9.29906 6.69398Z" fill="#EEEEEE"/>
</svg>
