<svg width="23" height="20" viewBox="0 0 23 20" fill="none" xmlns="http://www.w3.org/2000/svg">
<path d="M7.23963 19.0909C15.7188 19.0909 20.3572 11.9351 20.3572 5.74054C20.3572 5.5403 20.3572 5.3372 20.3487 5.13696C21.2518 4.47114 22.0312 3.64681 22.6504 2.7026C21.8068 3.08141 20.9129 3.33108 19.9977 3.44349C20.9618 2.85655 21.6838 1.93306 22.0297 0.844647C21.1239 1.3912 20.1325 1.77487 19.0989 1.97887C18.404 1.22514 17.4845 0.725815 16.4828 0.558241C15.4811 0.390667 14.4531 0.564197 13.558 1.05195C12.663 1.5397 11.9508 2.31446 11.5318 3.25621C11.1128 4.19796 11.0104 5.25415 11.2405 6.26117C9.4075 6.16756 7.61432 5.68257 5.97723 4.83766C4.34014 3.99275 2.8957 2.80679 1.7376 1.35669C1.14968 2.39091 0.970256 3.61427 1.23577 4.77834C1.50128 5.9424 2.19183 6.95991 3.16717 7.62424C2.43629 7.59895 1.72148 7.39906 1.08039 7.04068V7.10505C1.08165 8.18847 1.45015 9.23822 2.12361 10.0769C2.79706 10.9155 3.73416 11.4916 4.7765 11.7077C4.38086 11.8187 3.97216 11.8741 3.56178 11.8722C3.27247 11.8731 2.98375 11.8458 2.69954 11.7907C2.99415 12.7233 3.56778 13.5387 4.34011 14.1228C5.11243 14.7068 6.04477 15.0301 7.00652 15.0475C5.3727 16.3545 3.35451 17.0633 1.27699 17.0599C0.910921 17.0615 0.545105 17.04 0.181641 16.9955C2.29021 18.3647 4.739 19.0917 7.23963 19.0909Z" fill="#EEEEEE"/>
</svg>
