<svg width="235" height="172" viewBox="0 0 235 172" fill="none" xmlns="http://www.w3.org/2000/svg">
<g clip-path="url(#clip0_242_16673)">
<path d="M228.61 153.625C227.823 147.678 224.088 141.843 218.396 139.951C220.683 146.06 220.736 152.78 218.545 158.924C217.691 161.29 216.496 163.834 217.335 166.205C217.857 167.681 219.115 168.803 220.516 169.499C221.918 170.196 223.47 170.521 225.002 170.84L225.306 171.086C227.691 165.583 229.398 159.571 228.61 153.625Z" fill="#F0F0F0"/>
<path d="M218.341 140.064C221.676 143.741 223.767 148.377 224.318 153.311C224.455 154.371 224.425 155.446 224.227 156.496C224.002 157.514 223.508 158.452 222.798 159.214C222.15 159.937 221.403 160.603 220.942 161.471C220.712 161.92 220.58 162.411 220.554 162.914C220.528 163.417 220.608 163.919 220.79 164.389C221.213 165.571 222.035 166.53 222.871 167.44C223.8 168.451 224.78 169.486 225.182 170.832C225.231 170.995 225.481 170.91 225.432 170.747C224.733 168.405 222.443 167.089 221.34 164.983C220.824 164 220.603 162.856 221.07 161.811C221.478 160.897 222.248 160.21 222.911 159.483C223.615 158.75 224.129 157.856 224.408 156.878C224.658 155.841 224.73 154.769 224.62 153.708C224.412 151.314 223.828 148.969 222.891 146.757C221.836 144.226 220.356 141.895 218.514 139.864C218.4 139.738 218.227 139.939 218.341 140.064Z" fill="white"/>
<path d="M224.234 151.711C225.049 151.506 225.765 151.018 226.254 150.334C226.742 149.65 226.972 148.815 226.902 147.977C226.887 147.808 226.623 147.823 226.638 147.992C226.705 148.772 226.491 149.551 226.034 150.186C225.578 150.822 224.909 151.274 224.149 151.46C223.984 151.501 224.069 151.751 224.234 151.711Z" fill="white"/>
<path d="M223.175 158.888C221.692 158.019 220.592 156.623 220.093 154.978C220.044 154.815 219.794 154.9 219.843 155.063C220.365 156.773 221.513 158.224 223.058 159.125C223.205 159.211 223.321 158.973 223.175 158.888Z" fill="white"/>
<path d="M221.593 144.477C221.294 144.622 220.963 144.691 220.631 144.677C220.299 144.662 219.976 144.566 219.691 144.396C219.545 144.308 219.429 144.546 219.574 144.633C219.89 144.819 220.247 144.926 220.614 144.942C220.981 144.959 221.346 144.885 221.677 144.728C221.71 144.716 221.737 144.692 221.752 144.66C221.767 144.629 221.77 144.593 221.76 144.56C221.749 144.527 221.725 144.5 221.693 144.484C221.662 144.469 221.626 144.466 221.593 144.477L221.593 144.477Z" fill="white"/>
<path d="M201.177 150.718C201.267 150.775 201.357 150.833 201.447 150.892C202.648 151.669 203.785 152.542 204.845 153.502C204.928 153.575 205.012 153.651 205.093 153.726C207.622 156.068 209.695 158.859 211.206 161.957C211.807 163.191 212.312 164.468 212.718 165.779C213.279 167.588 213.744 169.595 214.837 171.07C214.95 171.225 215.072 171.373 215.202 171.513L224.981 171.436C225.003 171.424 225.025 171.415 225.048 171.404L225.438 171.419C225.422 171.35 225.404 171.279 225.388 171.209C225.378 171.169 225.367 171.129 225.358 171.089C225.351 171.063 225.344 171.036 225.339 171.011C225.337 171.002 225.335 170.993 225.332 170.987C225.328 170.962 225.321 170.94 225.316 170.918C225.215 170.519 225.11 170.121 225.003 169.722C225.003 169.72 225.003 169.72 225.001 169.718C224.213 166.673 223.066 163.733 221.585 160.958C221.539 160.876 221.494 160.792 221.444 160.709C220.759 159.482 219.974 158.312 219.099 157.212C218.617 156.611 218.105 156.035 217.565 155.486C216.168 154.07 214.556 152.882 212.79 151.967C209.268 150.143 205.202 149.466 201.462 150.627C201.367 150.656 201.273 150.686 201.177 150.718Z" fill="#F0F0F0"/>
<path d="M201.2 150.843C206.077 151.771 210.538 154.213 213.948 157.821C214.696 158.584 215.319 159.461 215.794 160.419C216.227 161.367 216.397 162.413 216.289 163.449C216.207 164.417 216.011 165.398 216.166 166.37C216.252 166.865 216.443 167.338 216.725 167.755C217.007 168.172 217.374 168.525 217.801 168.79C218.85 169.479 220.084 169.75 221.3 169.974C222.65 170.222 224.056 170.458 225.188 171.291C225.325 171.392 225.473 171.173 225.336 171.072C223.368 169.623 220.747 169.951 218.598 168.934C217.595 168.459 216.729 167.679 216.473 166.563C216.248 165.587 216.45 164.576 216.541 163.596C216.662 162.587 216.534 161.564 216.168 160.615C215.743 159.637 215.155 158.737 214.429 157.956C212.821 156.17 210.943 154.649 208.864 153.447C206.497 152.062 203.912 151.092 201.219 150.579C201.052 150.547 201.035 150.811 201.2 150.843Z" fill="white"/>
<path d="M212.919 156.595C213.446 155.94 213.724 155.12 213.703 154.279C213.681 153.439 213.362 152.634 212.801 152.007C212.687 151.881 212.486 152.052 212.6 152.178C213.123 152.761 213.42 153.511 213.439 154.294C213.457 155.076 213.195 155.839 212.7 156.446C212.593 156.578 212.812 156.726 212.919 156.595Z" fill="white"/>
<path d="M216.395 162.962C214.688 163.161 212.969 162.708 211.581 161.696C211.444 161.595 211.295 161.814 211.432 161.914C212.879 162.965 214.669 163.432 216.444 163.222C216.614 163.202 216.564 162.942 216.395 162.962Z" fill="white"/>
<path d="M206.455 152.411C206.304 152.707 206.081 152.96 205.808 153.149C205.534 153.337 205.218 153.455 204.888 153.491C204.718 153.509 204.769 153.769 204.937 153.751C205.302 153.709 205.651 153.579 205.953 153.371C206.256 153.164 206.503 152.885 206.674 152.56C206.692 152.531 206.699 152.495 206.693 152.461C206.686 152.427 206.667 152.397 206.639 152.376C206.61 152.357 206.574 152.349 206.54 152.356C206.505 152.362 206.475 152.382 206.455 152.411L206.455 152.411Z" fill="white"/>
<path d="M164.168 93.8024C164.338 94.0261 164.555 94.2097 164.804 94.3404C165.052 94.4711 165.327 94.5457 165.607 94.5589C165.888 94.5721 166.168 94.5237 166.428 94.417C166.688 94.3102 166.921 94.1478 167.111 93.9412L173.373 96.6646L172.763 93.169L166.91 91.1187C166.542 90.8221 166.078 90.6708 165.605 90.6937C165.133 90.7165 164.685 90.9118 164.347 91.2426C164.009 91.5734 163.804 92.0167 163.771 92.4885C163.738 92.9603 163.88 93.4278 164.168 93.8024V93.8024Z" fill="#A0616A"/>
<path d="M169.865 91.8269L181.827 93.3772L194.163 85.9461C194.823 85.5488 195.56 85.2956 196.324 85.2033C197.089 85.1111 197.864 85.1818 198.6 85.4109C199.335 85.6399 200.013 86.0221 200.59 86.5323C201.167 87.0424 201.63 87.669 201.947 88.3707C202.52 89.6409 202.585 91.0818 202.13 92.3985C201.675 93.7152 200.733 94.8081 199.498 95.4534L182.922 101.36L182.891 101.372L168.347 94.8932L169.865 91.8269Z" fill="#3F3D56"/>
<path d="M200.436 169.187H197.893L196.683 159.379L200.437 159.379L200.436 169.187Z" fill="#A0616A"/>
<path d="M201.085 171.654L192.885 171.654V171.55C192.885 170.704 193.222 169.892 193.82 169.294C194.419 168.695 195.23 168.359 196.077 168.359H196.077L197.575 167.223L200.369 168.359L201.085 168.359L201.085 171.654Z" fill="#2F2E41"/>
<path d="M190.582 167.587L188.101 168.147L184.761 158.846L188.422 158.02L190.582 167.587Z" fill="#A0616A"/>
<path d="M191.757 169.848L183.759 171.654L183.737 171.553C183.55 170.727 183.699 169.862 184.151 169.146C184.603 168.43 185.321 167.924 186.147 167.737L186.147 167.737L187.357 166.299L190.333 166.792L191.032 166.634L191.757 169.848Z" fill="#2F2E41"/>
<path d="M203.657 109.227C204.849 112.822 204.723 116.725 203.37 120.914L202.792 144.5C202.792 144.5 203.653 159.967 200.873 165.41H196.841L194.845 143.088L194.594 128.105L185.95 140.745L191.456 165.045L186.493 165.488L177.559 139.118L188.582 113.534L203.657 109.227Z" fill="#2F2E41"/>
<path d="M187.334 112.704L188.329 110.218L187.671 108.081L187.521 87.372L187.521 87.3562L189.907 83.5514L189.927 81.1449L196.59 80.9824L197.312 82.8173L198.742 83.6722C200.301 84.6071 201.586 85.9361 202.468 87.5254C203.35 89.1147 203.798 90.9084 203.767 92.7258L203.509 106.698L204.174 108.028C204.354 108.389 204.455 108.785 204.468 109.189C204.481 109.592 204.407 109.994 204.25 110.366C204.093 110.738 203.858 111.072 203.56 111.345C203.262 111.617 202.909 111.822 202.525 111.945L187.863 114.29L187.334 112.704Z" fill="#3F3D56"/>
<path d="M192.648 78.6992C195.991 78.6992 198.702 75.9888 198.702 72.6455C198.702 69.3021 195.991 66.5918 192.648 66.5918C189.305 66.5918 186.594 69.3021 186.594 72.6455C186.594 75.9888 189.305 78.6992 192.648 78.6992Z" fill="#A0616A"/>
<path d="M198.952 73.9659C199.132 73.2053 199.049 72.1349 198.947 71.3689C198.817 70.359 198.475 69.3878 197.945 68.5183C197.415 67.6488 196.708 66.9003 195.871 66.3214C195.549 66.0774 195.168 65.9257 194.767 65.8826C194.566 65.8658 194.365 65.9127 194.193 66.0169C194.021 66.121 193.886 66.2769 193.808 66.4623C193.707 66.2103 193.556 65.9816 193.363 65.7905C193.17 65.5993 192.94 65.4497 192.688 65.3509C192.18 65.1563 191.633 65.0827 191.092 65.136C190.043 65.2224 189.037 65.5913 188.181 66.2035C187.324 66.8157 186.649 67.6483 186.228 68.613C186.066 68.9971 185.615 67.5782 185.41 67.9412C185.222 68.3184 184.893 68.607 184.495 68.7452C184.093 68.8572 183.93 70.5111 183.772 70.1254C183.65 70.4105 183.601 70.7218 183.632 71.0306C183.662 71.3394 183.77 71.6355 183.945 71.8914C184.12 72.1473 184.358 72.3546 184.635 72.4941C184.912 72.6335 185.22 72.7006 185.53 72.689C185.935 72.6366 186.337 72.5597 186.733 72.4587C187.46 72.3671 188.196 72.5448 188.801 72.9584C189.406 73.372 189.838 73.9927 190.017 74.7034C190.127 74.2901 190.304 73.8974 190.54 73.5404C190.659 73.3628 190.82 73.2164 191.007 73.1133C191.195 73.0102 191.404 72.9534 191.618 72.9476C191.823 72.971 192.021 73.0361 192.199 73.1387C192.378 73.2414 192.534 73.3794 192.657 73.5444C192.923 73.8573 193.123 74.2224 193.392 74.5337C194.18 75.4469 195.245 77.5767 196.368 77.4214C197.254 77.2988 198.705 75.0045 198.952 73.9659Z" fill="#2F2E41"/>
<path d="M170.081 109.871C170.338 109.983 170.617 110.037 170.898 110.029C171.179 110.021 171.455 109.952 171.706 109.827C171.957 109.701 172.178 109.522 172.352 109.302C172.527 109.082 172.651 108.826 172.716 108.552L179.509 107.866L177.268 105.115L171.16 106.189C170.694 106.11 170.215 106.205 169.814 106.456C169.413 106.707 169.118 107.096 168.985 107.55C168.852 108.004 168.89 108.491 169.092 108.919C169.294 109.346 169.646 109.685 170.081 109.871Z" fill="#A0616A"/>
<path d="M174.084 105.362L185.277 100.865L192.404 88.3505C192.785 87.6813 193.304 87.1004 193.925 86.646C194.547 86.1916 195.258 85.8741 196.012 85.7143C196.765 85.5546 197.544 85.5562 198.297 85.7191C199.049 85.882 199.759 86.2024 200.379 86.6594C201.5 87.4873 202.261 88.7123 202.508 90.0834C202.755 91.4546 202.468 92.8682 201.706 94.0349L190.135 107.293L190.114 107.318L174.259 108.779L174.084 105.362Z" fill="#3F3D56"/>
<path d="M234.31 172H133.267C133.222 172 133.177 171.991 133.135 171.974C133.093 171.957 133.054 171.931 133.022 171.899C132.99 171.867 132.964 171.829 132.947 171.787C132.93 171.745 132.921 171.7 132.921 171.654C132.921 171.609 132.93 171.564 132.947 171.522C132.964 171.48 132.99 171.442 133.022 171.41C133.054 171.377 133.093 171.352 133.135 171.335C133.177 171.317 133.222 171.308 133.267 171.309H234.31C234.355 171.308 234.4 171.317 234.442 171.335C234.484 171.352 234.523 171.377 234.555 171.41C234.587 171.442 234.613 171.48 234.63 171.522C234.647 171.564 234.656 171.609 234.656 171.654C234.656 171.7 234.647 171.745 234.63 171.787C234.613 171.829 234.587 171.867 234.555 171.899C234.523 171.931 234.484 171.957 234.442 171.974C234.4 171.991 234.355 172 234.31 172Z" fill="#CCCCCC"/>
<path d="M169.01 115.774H123.092C122.772 115.773 122.465 115.646 122.239 115.42C122.013 115.194 121.885 114.887 121.885 114.567V95.9354C121.885 95.6155 122.013 95.3087 122.239 95.0824C122.465 94.8562 122.772 94.7289 123.092 94.7285H169.01C169.33 94.7289 169.636 94.8562 169.863 95.0824C170.089 95.3087 170.216 95.6155 170.216 95.9354V114.567C170.216 114.887 170.089 115.194 169.863 115.42C169.636 115.646 169.33 115.773 169.01 115.774Z" fill="#0072CF"/>
<path d="M164.638 124.709H127.464C127.274 124.71 127.085 124.672 126.909 124.6C126.733 124.527 126.574 124.42 126.439 124.286C126.304 124.151 126.197 123.992 126.124 123.816C126.051 123.64 126.014 123.451 126.014 123.261C126.014 123.071 126.051 122.882 126.124 122.706C126.197 122.53 126.304 122.371 126.439 122.236C126.574 122.102 126.733 121.995 126.909 121.922C127.085 121.85 127.274 121.812 127.464 121.813H164.638C166.505 121.787 166.524 124.736 164.638 124.709Z" fill="#E4E4E4"/>
<path d="M164.637 131.348H127.464C127.08 131.348 126.712 131.195 126.44 130.924C126.168 130.652 126.016 130.284 126.016 129.9C126.016 129.516 126.168 129.147 126.44 128.876C126.712 128.604 127.08 128.451 127.464 128.451H164.637C166.505 128.425 166.524 131.374 164.637 131.348Z" fill="#E4E4E4"/>
<path d="M164.638 137.989H127.464C127.274 137.989 127.085 137.952 126.909 137.879C126.733 137.806 126.574 137.7 126.439 137.565C126.304 137.431 126.197 137.271 126.124 137.095C126.051 136.919 126.014 136.731 126.014 136.54C126.014 136.35 126.051 136.161 126.124 135.986C126.197 135.81 126.304 135.65 126.439 135.515C126.574 135.381 126.733 135.274 126.909 135.202C127.085 135.129 127.274 135.092 127.464 135.092H164.638C166.505 135.066 166.524 138.015 164.638 137.989Z" fill="#E4E4E4"/>
<path d="M8.42364 66.3569C0.340389 55.7363 -2.91589 40.6674 3.10085 28.7539C9.07146 41.9831 19.529 52.6741 32.6232 58.9353C37.6819 61.3316 43.5578 63.4702 45.9524 68.5298C47.4424 71.6779 47.217 75.4219 46.0976 78.7199C44.978 82.018 43.0382 84.9653 41.1187 87.8717L41.0272 88.7363C28.6306 83.7906 16.5069 76.9775 8.42364 66.3569Z" fill="#F0F0F0"/>
<path d="M3.36543 28.8437C3.86086 39.7635 7.84807 50.5958 14.7073 59.1278C16.1902 60.9724 17.8551 62.7146 19.8467 64.0145C21.7977 65.2667 24.0484 65.9735 26.365 66.0616C28.5234 66.1872 30.7457 66.0657 32.836 66.7137C35.0392 67.3967 36.6811 69.0153 37.6508 71.0813C38.8372 73.6092 39.0446 76.4126 39.1521 79.1611C39.2714 82.2129 39.347 85.3846 40.8243 88.1403C41.0033 88.4742 40.4747 88.7324 40.296 88.399C37.7259 83.6045 39.2767 77.9365 37.7156 72.8809C36.9871 70.5219 35.5433 68.3681 33.1661 67.4508C31.0874 66.6486 28.7956 66.7719 26.6091 66.6637C24.3133 66.5501 22.1633 66.0645 20.161 64.8995C18.1127 63.7078 16.3762 62.0271 14.8526 60.2285C11.4281 56.1241 8.67022 51.5069 6.67999 46.5458C4.37715 40.8964 3.05769 34.8947 2.77869 28.8004C2.76157 28.4232 3.34843 28.4689 3.36543 28.8437L3.36543 28.8437Z" fill="white"/>
<path d="M12.3314 56.4747C10.7234 57.4301 8.82804 57.7829 6.98391 57.4699C5.13979 57.1569 3.46697 56.1986 2.26418 54.7661C2.0218 54.4754 2.46213 54.0851 2.70483 54.3762C3.8224 55.7122 5.38073 56.6047 7.09857 56.8927C8.81641 57.1806 10.5806 56.845 12.0727 55.9464C12.3972 55.7515 12.6541 56.2809 12.3314 56.4747Z" fill="white"/>
<path d="M25.2625 66.143C26.2389 62.4461 25.7861 58.517 23.9943 55.1391C23.8165 54.8046 24.345 54.5463 24.5226 54.8804C26.3806 58.3989 26.8436 62.4887 25.819 66.3336C25.7211 66.7 25.1651 66.5074 25.2625 66.1429V66.143Z" fill="white"/>
<path d="M5.15695 40.9141C5.85617 40.6741 6.48484 40.2641 6.98648 39.7211C7.48812 39.1781 7.84703 38.5189 8.03098 37.8029C8.12418 37.4354 8.68008 37.6285 8.58747 37.9935C8.38056 38.7837 7.98329 39.5111 7.43039 40.1123C6.87748 40.7135 6.18576 41.1702 5.41566 41.4424C5.34522 41.4742 5.26534 41.4779 5.19224 41.4529C5.11915 41.4278 5.05833 41.3759 5.02215 41.3076C4.98825 41.2375 4.98339 41.1568 5.00863 41.0832C5.03387 41.0095 5.08717 40.9487 5.15695 40.9141Z" fill="white"/>
<path d="M47.1681 18.7461C47.1164 18.9772 47.0647 19.2083 47.0163 19.4431C46.3376 22.5538 45.9127 25.7144 45.7459 28.8938C45.7291 29.1394 45.7157 29.3886 45.706 29.6342C45.3857 37.2985 46.491 44.9556 48.9659 52.2164C49.9534 55.1047 51.1592 57.9137 52.5729 60.6191C54.5254 64.3552 56.9397 68.2508 57.5267 72.2947C57.5926 72.7159 57.6325 73.1408 57.6459 73.567L42.0893 88.7818C42.0365 88.7986 41.9871 88.8191 41.9342 88.8361L41.3409 89.472C41.2582 89.3376 41.1754 89.1964 41.0927 89.0619C41.0445 88.9842 40.9997 88.903 40.9514 88.8252C40.9203 88.7723 40.8894 88.7192 40.8583 88.6732C40.8479 88.6556 40.8377 88.6378 40.8307 88.6238C40.7996 88.5778 40.7756 88.5318 40.748 88.4894C40.2828 87.7013 39.8224 86.9086 39.3666 86.1113C39.3631 86.1078 39.3631 86.1078 39.3631 86.1008C35.9061 80.0168 32.9265 73.5907 31.0171 66.9167C30.9597 66.7159 30.8987 66.5117 30.8484 66.3039C30.0044 63.2908 29.408 60.2137 29.0654 57.1034C28.8832 55.3998 28.7874 53.6879 28.7783 51.9746C28.7634 47.5474 29.4449 43.1454 30.7979 38.9301C33.4963 30.5272 38.8521 23.0808 46.575 19.0484C46.7726 18.9454 46.9669 18.8456 47.1681 18.7461Z" fill="#F0F0F0"/>
<path d="M47.3261 18.9769C41.1471 27.994 37.8089 39.0436 38.1487 49.9856C38.2222 52.3513 38.5026 54.7447 39.3102 56.9817C40.1141 59.1561 41.4856 61.0756 43.2822 62.5407C44.9299 63.9404 46.7775 65.1814 48.0563 66.9573C49.4042 68.8291 49.7407 71.11 49.271 73.3434C48.6964 76.0761 47.1741 78.4393 45.6051 80.6986C43.863 83.2071 42.0139 85.785 41.5342 88.8748C41.4761 89.2491 40.8986 89.1371 40.9566 88.7633C41.7912 83.3877 46.442 79.7958 48.2393 74.8193C49.0779 72.4972 49.2219 69.9082 47.8761 67.7446C46.6993 65.8525 44.7952 64.5712 43.1146 63.1684C41.3499 61.6954 39.9256 60.0133 39.0283 57.8775C38.1103 55.6928 37.7358 53.3054 37.6021 50.952C37.3389 45.6131 37.9168 40.266 39.3146 35.1067C40.8773 29.2095 43.4372 23.623 46.8836 18.5891C47.0971 18.2776 47.5381 18.6674 47.3261 18.9769L47.3261 18.9769Z" fill="white"/>
<path d="M37.8507 46.4344C35.9915 46.2291 34.2658 45.3696 32.9818 44.0094C31.6978 42.6492 30.9391 40.8769 30.8412 39.0089C30.8227 38.6309 31.4093 38.5844 31.4278 38.9629C31.5158 40.7025 32.2227 42.3534 33.4209 43.6175C34.6192 44.8817 36.2298 45.6759 37.9622 45.8568C38.3386 45.8965 38.225 46.4739 37.8507 46.4344H37.8507Z" fill="white"/>
<path d="M42.353 61.9405C45.3585 59.5766 47.3625 56.1668 47.9655 52.391C48.025 52.0169 48.6025 52.1288 48.5431 52.5025C47.9082 56.4306 45.8155 59.9747 42.6826 62.4278C42.3838 62.6614 42.0559 62.1728 42.353 61.9405Z" fill="white"/>
<path d="M41.4897 29.6921C42.1925 29.9215 42.9413 29.9726 43.6688 29.8411C44.3963 29.7095 45.0797 29.3993 45.6577 28.9383C45.9533 28.7011 46.281 29.1899 45.9872 29.4256C45.3463 29.9319 44.5911 30.2736 43.7877 30.4207C42.9842 30.5679 42.157 30.516 41.3782 30.2697C41.3029 30.2526 41.2368 30.2075 41.1936 30.1435C41.1503 30.0795 41.133 30.0014 41.1452 29.9252C41.1603 29.8488 41.205 29.7814 41.2695 29.7378C41.334 29.6942 41.4132 29.6777 41.4897 29.6921Z" fill="white"/>
<path d="M51.3171 48.4057C54.9165 48.4057 57.8344 45.4878 57.8344 41.8884C57.8344 38.289 54.9165 35.3711 51.3171 35.3711C47.7177 35.3711 44.7998 38.289 44.7998 41.8884C44.7998 45.4878 47.7177 48.4057 51.3171 48.4057Z" fill="#2F2E41"/>
<path d="M86.9776 104.604H41.0599C40.74 104.603 40.4332 104.476 40.2069 104.25C39.9807 104.024 39.8534 103.717 39.853 103.397V84.7655C39.8534 84.4455 39.9807 84.1388 40.2069 83.9125C40.4332 83.6862 40.74 83.559 41.0599 83.5586H86.9776C87.2976 83.559 87.6044 83.6862 87.8307 83.9125C88.0569 84.1388 88.1842 84.4455 88.1846 84.7655V103.397C88.1842 103.717 88.0569 104.024 87.8307 104.25C87.6044 104.476 87.2976 104.603 86.9776 104.604Z" fill="#D1D3D4"/>
<path d="M82.6053 113.541H45.4321C45.0491 113.54 44.6824 113.386 44.4121 113.115C44.1419 112.843 43.9902 112.476 43.9902 112.093C43.9902 111.71 44.1419 111.343 44.4121 111.071C44.6824 110.8 45.0491 110.646 45.4321 110.645H82.6053C84.4731 110.619 84.4918 113.568 82.6053 113.541Z" fill="#E4E4E4"/>
<path d="M82.6055 120.18H45.4323C45.2419 120.18 45.0534 120.143 44.8774 120.07C44.7015 119.998 44.5416 119.891 44.4069 119.757C44.2722 119.622 44.1653 119.462 44.0924 119.286C44.0195 119.111 43.9819 118.922 43.9819 118.732C43.9819 118.541 44.0195 118.353 44.0924 118.177C44.1653 118.001 44.2722 117.841 44.4069 117.707C44.5416 117.572 44.7015 117.466 44.8774 117.393C45.0534 117.32 45.2419 117.283 45.4323 117.283H82.6055C84.4733 117.257 84.492 120.206 82.6055 120.18Z" fill="#E4E4E4"/>
<path d="M82.6054 126.819H45.4322C45.0481 126.819 44.6797 126.666 44.4081 126.394C44.1365 126.123 43.9839 125.754 43.9839 125.37C43.9839 124.986 44.1365 124.618 44.4081 124.346C44.6797 124.075 45.0481 123.922 45.4322 123.922H82.6054C84.4732 123.896 84.4919 126.845 82.6054 126.819Z" fill="#E4E4E4"/>
<path d="M85.6578 54.7571C85.4813 55.0247 85.2482 55.2504 84.975 55.4182C84.7018 55.586 84.3952 55.6918 84.0766 55.7283C83.7581 55.7647 83.4355 55.7309 83.1314 55.6292C82.8274 55.5275 82.5494 55.3603 82.3169 55.1395L66.0464 62.0849L66.4744 58.0578L82.3306 51.9101C82.7274 51.5442 83.2446 51.3366 83.7843 51.3266C84.324 51.3165 84.8486 51.5048 85.2587 51.8558C85.6689 52.2067 85.936 52.6959 86.0096 53.2306C86.0831 53.7654 85.958 54.3085 85.6578 54.7571Z" fill="#FFB6B6"/>
<path d="M52.5402 54.3845C52.5402 54.3845 50.5286 56.3383 52.5249 58.8527C54.5213 61.367 64.3921 63.0019 65.9752 63.3131C67.5583 63.6242 76.364 57.6344 76.364 57.6344L77.2169 53.2949L67.3877 56.6672L52.5402 54.3845Z" fill="#0072CF"/>
<path d="M47.1379 69.2086L47.2963 72.2183C47.2963 72.2183 46.8287 74.8843 47.2133 75.4596C47.5949 76.0321 58.0086 76.1044 58.0086 76.1044C58.0086 76.1044 58.6967 72.3951 59.2893 69.1484L47.1379 69.2086Z" fill="#FFB6B6"/>
<path d="M77.0786 109.003L79.2557 108.563L78.6326 99.7695L75.4194 100.419L77.0786 109.003Z" fill="#FFB6B6"/>
<path d="M80.1968 97.5601L82.2206 96.6502L79.5951 88.2363L76.6079 89.5798L80.1968 97.5601Z" fill="#FFB6B6"/>
<path d="M81.9598 92.8183L78.1489 94.9761L68.7505 79.8736C62.1527 84.3185 55.701 86.4472 49.197 87.5831C46.998 87.9747 44.7561 87.7762 44.3339 85.5381C44.3142 85.4335 44.2984 85.3283 44.2867 85.2225C44.027 82.7778 47.068 79.6443 47.4545 76.6532L55.7772 76.1536L56.8035 77.4695L66.4283 71.5521C66.8955 71.2711 67.4137 71.0853 67.953 71.0055C68.4924 70.9256 69.0422 70.9533 69.5707 71.087C70.0993 71.2206 70.5962 71.4576 71.0328 71.7841C71.4694 72.1107 71.837 72.5204 72.1145 72.9897C72.1781 73.0945 72.2372 73.2019 72.2917 73.3118L81.9598 92.8183Z" fill="#2F2E41"/>
<path d="M79.6274 102.977L75.2668 103.382L67.3604 87.2123C59.5201 88.5607 52.1235 88.9926 45.7257 87.3615C44.6754 87.0841 43.7765 86.4046 43.2231 85.4698C42.6697 84.535 42.5063 83.42 42.7683 82.3658C42.7932 82.2623 42.822 82.1599 42.8547 82.0585C43.6204 79.7224 45.6247 78.0694 47.2038 75.5L58.7383 75.6752L57.45 80.1204L68.6549 78.6704C69.1963 78.6057 69.7451 78.6488 70.2697 78.7971C70.7943 78.9455 71.2844 79.1962 71.7117 79.5349C72.139 79.8735 72.495 80.2934 72.7593 80.7703C73.0235 81.2471 73.1908 81.7716 73.2514 82.3134C73.2665 82.4351 73.2763 82.5572 73.2809 82.6798L79.6274 102.977Z" fill="#2F2E41"/>
<path d="M51.6417 48.9532C54.2284 48.9532 56.3253 46.8563 56.3253 44.2696C56.3253 41.6829 54.2284 39.5859 51.6417 39.5859C49.055 39.5859 46.958 41.6829 46.958 44.2696C46.958 46.8563 49.055 48.9532 51.6417 48.9532Z" fill="#FFB6B6"/>
<path d="M48.896 50.6445L53.1904 51.1498C53.3715 51.1711 53.5415 51.2483 53.6766 51.3708C53.8117 51.4933 53.9052 51.6548 53.9442 51.833L54.6271 54.9581L58.8845 59.9717C58.8845 59.9717 60.4133 62.8382 59.84 66.0868C59.2667 69.3355 59.0148 71.7494 59.0148 71.7494C59.0148 71.7494 47.5944 76.0314 47.2122 75.4581C46.8301 74.8848 46.706 72.2807 46.706 72.2807L45.1772 55.2731C45.1772 55.2731 46.8971 52.4066 47.8526 52.4066C48.4693 52.3858 48.3902 50.9979 48.896 50.6445Z" fill="#0072CF"/>
<path d="M59.1307 72.7948C59.7329 72.7948 60.2211 72.2089 60.2211 71.4862C60.2211 70.7636 59.7329 70.1777 59.1307 70.1777C58.5285 70.1777 58.0403 70.7636 58.0403 71.4862C58.0403 72.2089 58.5285 72.7948 59.1307 72.7948Z" fill="#0072CF"/>
<path d="M75.9983 106.738L79.3174 105.074L79.943 106.534L84.1401 107.382C84.3474 107.424 84.5359 107.531 84.6781 107.688C84.8202 107.844 84.9086 108.042 84.9303 108.252C84.952 108.463 84.9059 108.675 84.7987 108.857C84.6915 109.039 84.5288 109.183 84.3344 109.266L80.2791 111.004L78.9614 109.86L79.3072 111.421L77.7782 112.076L75.9983 106.738Z" fill="#2F2E41"/>
<path d="M79.2471 96.8582L82.5364 95.1367L83.1876 96.5849L87.399 97.3594C87.607 97.3976 87.7974 97.5013 87.9423 97.6554C88.0871 97.8094 88.179 98.0058 88.2044 98.2158C88.2298 98.4257 88.1874 98.6383 88.0834 98.8225C87.9794 99.0066 87.8193 99.1527 87.6264 99.2395L83.6023 101.049L82.2646 99.9282L82.6379 101.482L81.1206 102.165L79.2471 96.8582Z" fill="#2F2E41"/>
<path d="M48.9659 42.801C47.7285 42.803 46.5209 42.422 45.5086 41.7103L45.4749 41.6866V41.6454C45.4762 40.4485 45.9523 39.301 46.7986 38.4546C47.645 37.6083 48.7925 37.1322 49.9894 37.1309H51.8902C53.0871 37.1322 54.2346 37.6083 55.081 38.4546C55.9273 39.301 56.4034 40.4485 56.4047 41.6454C56.4035 41.9193 56.2953 42.1819 56.1033 42.3773C55.9112 42.5727 55.6505 42.6854 55.3766 42.6914L49.0727 42.8001C49.0372 42.8007 49.0014 42.801 48.9659 42.801Z" fill="#2F2E41"/>
<path d="M67.818 79.2323C67.4987 79.2619 67.1769 79.2211 66.8751 79.1128C66.5734 79.0044 66.299 78.8313 66.0714 78.6055C65.8438 78.3797 65.6685 78.1067 65.5578 77.8059C65.4471 77.505 65.4037 77.1835 65.4307 76.864L49.8376 68.5079L53.2482 66.3242L67.9596 74.8556C68.4933 74.9365 68.9788 75.2104 69.324 75.6253C69.6692 76.0403 69.8503 76.5674 69.8328 77.1069C69.8153 77.6464 69.6006 78.1607 69.2292 78.5525C68.8579 78.9442 68.3557 79.1861 67.8179 79.2323H67.818Z" fill="#FFB6B6"/>
<path d="M47.4044 53.1522C47.4044 53.1522 44.6218 52.8037 43.9076 55.9338C43.1935 59.0639 48.0888 67.7897 48.8358 69.2198C49.5827 70.6498 59.7629 73.7775 59.7629 73.7775L63.6829 71.73L54.9057 66.1671L47.4044 53.1522Z" fill="#0072CF"/>
<path d="M52.3666 37.8296C52.8048 37.2923 52.4622 36.4964 52.1029 35.9034C51.2795 34.5447 50.4152 33.2119 49.51 31.905C48.3789 30.2721 47.0083 28.5649 45.0608 28.1734C43.2847 27.8163 41.4955 28.6604 39.9675 29.6336C38.4652 30.5905 36.9856 31.7959 36.4138 33.4828C35.8666 35.0971 36.2509 36.8898 36.9317 38.4525C37.5149 39.7909 38.2993 41.3913 37.4677 42.5912C37.0696 43.0842 36.5345 43.4484 35.9298 43.6378C34.3941 44.2344 32.7439 44.4779 31.1013 44.3503C33.3566 44.326 35.3307 46.6418 37.517 46.0878C38.7568 45.7736 39.5825 44.6178 40.1767 43.4852C40.6113 42.7246 40.9054 41.8919 41.0447 41.027C41.1891 39.8538 40.8767 38.6193 41.2711 37.5051C41.6816 36.3454 42.7729 35.5695 43.8744 35.0217C44.6057 34.6581 45.4031 34.3543 46.2175 34.416C48.5262 34.5907 49.722 37.4324 51.9127 38.1817" fill="#2F2E41"/>
<path d="M130.834 53.6878H84.9159C84.5959 53.6875 84.2892 53.5602 84.0629 53.3339C83.8366 53.1077 83.7094 52.8009 83.709 52.4809V33.8495C83.7094 33.5295 83.8366 33.2227 84.0629 32.9965C84.2892 32.7702 84.5959 32.6429 84.9159 32.6426H130.834C131.154 32.6429 131.46 32.7702 131.687 32.9965C131.913 33.2227 132.04 33.5295 132.041 33.8495V52.4809C132.04 52.8009 131.913 53.1077 131.687 53.3339C131.46 53.5602 131.154 53.6875 130.834 53.6878Z" fill="#0072CF"/>
<path d="M126.461 62.6253H89.2882C88.904 62.6253 88.5357 62.4727 88.264 62.2011C87.9924 61.9295 87.8398 61.5611 87.8398 61.177C87.8398 60.7929 87.9924 60.4245 88.264 60.1529C88.5357 59.8813 88.904 59.7287 89.2882 59.7287H126.461C128.329 59.7026 128.348 62.6516 126.461 62.6253Z" fill="#E4E4E4"/>
<path d="M126.462 69.264H89.2882C89.0979 69.2642 88.9093 69.227 88.7334 69.1543C88.5574 69.0817 88.3975 68.975 88.2628 68.8405C88.1281 68.706 88.0212 68.5462 87.9483 68.3704C87.8754 68.1945 87.8379 68.006 87.8379 67.8157C87.8379 67.6253 87.8754 67.4368 87.9483 67.261C88.0212 67.0851 88.1281 66.9253 88.2628 66.7908C88.3975 66.6563 88.5574 66.5497 88.7334 66.477C88.9093 66.4044 89.0979 66.3671 89.2882 66.3674H126.462C128.329 66.3413 128.348 69.2903 126.462 69.264Z" fill="#E4E4E4"/>
<path d="M126.461 75.9007H89.2882C88.904 75.9007 88.5357 75.7481 88.264 75.4765C87.9924 75.2049 87.8398 74.8365 87.8398 74.4524C87.8398 74.0683 87.9924 73.6999 88.264 73.4283C88.5357 73.1567 88.904 73.0041 89.2882 73.0041H126.461C128.329 72.978 128.348 75.927 126.461 75.9007Z" fill="#E4E4E4"/>
<path d="M179.833 7.63882H26.0166C25.7882 7.63857 25.5692 7.54772 25.4077 7.3862C25.2461 7.22467 25.1553 7.00567 25.155 6.77725V1.70923C25.1553 1.4808 25.2461 1.2618 25.4077 1.10028C25.5692 0.938758 25.7882 0.847906 26.0166 0.847656H179.833C180.062 0.847906 180.281 0.938758 180.442 1.10028C180.604 1.2618 180.694 1.4808 180.695 1.70923V6.77725C180.694 7.00567 180.604 7.22467 180.442 7.3862C180.281 7.54772 180.062 7.63857 179.833 7.63882Z" fill="#E6E7E8"/>
<path d="M30.1549 5.21988C30.8304 5.21988 31.3781 4.67222 31.3781 3.99666C31.3781 3.32109 30.8304 2.77344 30.1549 2.77344C29.4793 2.77344 28.9316 3.32109 28.9316 3.99666C28.9316 4.67222 29.4793 5.21988 30.1549 5.21988Z" fill="white"/>
<path d="M34.7979 5.21988C35.4735 5.21988 36.0212 4.67222 36.0212 3.99666C36.0212 3.32109 35.4735 2.77344 34.7979 2.77344C34.1224 2.77344 33.5747 3.32109 33.5747 3.99666C33.5747 4.67222 34.1224 5.21988 34.7979 5.21988Z" fill="white"/>
<path d="M39.441 5.21988C40.1166 5.21988 40.6642 4.67222 40.6642 3.99666C40.6642 3.32109 40.1166 2.77344 39.441 2.77344C38.7654 2.77344 38.2178 3.32109 38.2178 3.99666C38.2178 4.67222 38.7654 5.21988 39.441 5.21988Z" fill="white"/>
<path d="M175.284 3.15536H169.937C169.833 3.15451 169.733 3.11241 169.659 3.03823C169.586 2.96405 169.544 2.8638 169.544 2.75932C169.544 2.65484 169.586 2.55459 169.659 2.48041C169.733 2.40623 169.833 2.36413 169.937 2.36328H175.284C175.388 2.36413 175.488 2.40623 175.562 2.48041C175.635 2.55459 175.677 2.65484 175.677 2.75932C175.677 2.8638 175.635 2.96405 175.562 3.03823C175.488 3.11241 175.388 3.15451 175.284 3.15536Z" fill="white"/>
<path d="M175.284 4.63974H169.937C169.832 4.63974 169.732 4.59802 169.657 4.52375C169.583 4.44948 169.541 4.34874 169.541 4.24371C169.541 4.13867 169.583 4.03794 169.657 3.96367C169.732 3.8894 169.832 3.84767 169.937 3.84767H175.284C175.336 3.84722 175.388 3.85714 175.436 3.87684C175.485 3.89654 175.529 3.92564 175.566 3.96246C175.603 3.99928 175.633 4.04309 175.653 4.09136C175.673 4.13963 175.683 4.19141 175.683 4.24371C175.683 4.296 175.673 4.34778 175.653 4.39605C175.633 4.44433 175.603 4.48814 175.566 4.52496C175.529 4.56178 175.485 4.59088 175.436 4.61058C175.388 4.63028 175.336 4.64019 175.284 4.63974Z" fill="white"/>
<path d="M175.284 6.12411H169.937C169.832 6.12411 169.732 6.08238 169.657 6.00811C169.583 5.93384 169.541 5.83311 169.541 5.72807C169.541 5.62303 169.583 5.5223 169.657 5.44803C169.732 5.37376 169.832 5.33203 169.937 5.33203H175.284C175.389 5.33203 175.49 5.37376 175.564 5.44803C175.638 5.5223 175.68 5.62303 175.68 5.72807C175.68 5.83311 175.638 5.93384 175.564 6.00811C175.49 6.08238 175.389 6.12411 175.284 6.12411Z" fill="white"/>
</g>
<defs>
<clipPath id="clip0_242_16673">
<rect width="234.656" height="171.152" fill="white" transform="translate(0 0.847656)"/>
</clipPath>
</defs>
</svg>
