<svg width="28" height="28" viewBox="0 0 28 28" fill="none" xmlns="http://www.w3.org/2000/svg">
<path fill-rule="evenodd" clip-rule="evenodd" d="M1.625 0.5C1.32663 0.5 1.04048 0.618527 0.829505 0.829505C0.618527 1.04048 0.5 1.32663 0.5 1.625V26.375C0.5 26.6734 0.618527 26.9595 0.829505 27.1705C1.04048 27.3815 1.32663 27.5 1.625 27.5H26.375C26.6734 27.5 26.9595 27.3815 27.1705 27.1705C27.3815 26.9595 27.5 26.6734 27.5 26.375V1.625C27.5 1.32663 27.3815 1.04048 27.1705 0.829505C26.9595 0.618527 26.6734 0.5 26.375 0.5H1.625ZM12.5465 19.2965L22.6715 9.1715L21.0808 7.5785L11.75 16.9093L6.9215 12.0785L5.3285 13.6715L10.9535 19.2965C11.058 19.4013 11.1821 19.4844 11.3188 19.5411C11.4555 19.5978 11.602 19.627 11.75 19.627C11.898 19.627 12.0445 19.5978 12.1812 19.5411C12.3179 19.4844 12.442 19.4013 12.5465 19.2965Z" fill="#2CB629"/>
</svg>
