<svg width="58" height="58" viewBox="0 0 58 58" fill="none" xmlns="http://www.w3.org/2000/svg">
<rect x="0.366815" y="0.366815" width="57.2664" height="57.2664" rx="3.30134" stroke="#E9E9E9" stroke-width="0.733631"/>
<path d="M39 43H34V41H39V39H36C34.898 39 34 38.103 34 37V35C34 33.897 34.898 33 36 33H41V35H36V37H39C40.103 37 41 37.898 41 39V41C41 42.103 40.103 43 39 43ZM23 33H29V35H23V33ZM23 29H31V31H23V29Z" fill="#0072CF" fill-opacity="0.3"/>
<path d="M37 29.992H39V23C39 22.9 39 22.7 38.9 22.6C38.8 22.5 38.8 22.4 38.7 22.3L31.7 15.3C31.6 15.2 31.5 15.1 31.4 15.1C31.3 15 31.1 15 31 15H21C20.5 15 20 15.2 19.6 15.6C19.2 16 19 16.5 19 17V41C19 41.5 19.2 42 19.6 42.4C20 42.8 20.5 43 21 43H28.947V41H21V17H29V23C29 23.5 29.2 24 29.6 24.4C30 24.8 30.5 25 31 25H37V29.992ZM31 23V17.4L36.6 23H31Z" fill="#0072CF" fill-opacity="0.3"/>
</svg>
