<svg width="48" height="48" viewBox="0 0 48 48" fill="none" xmlns="http://www.w3.org/2000/svg">
<g clip-path="url(#clip0_238_4747)">
<path d="M28.8607 41.6336C30.8234 41.0925 32.1557 39.7155 31.8366 38.558C31.5174 37.4006 29.6677 36.9009 27.7051 37.4421C25.7424 37.9832 24.4101 39.3602 24.7292 40.5176C25.0483 41.6751 26.8981 42.1747 28.8607 41.6336Z" fill="#424242"/>
<path d="M19.1365 6.36282C12.9404 8.0712 9.184 14.063 10.7497 19.7418C11.1582 21.2233 12.0418 22.6844 13.0822 23.8999C14.5436 25.6097 15.9463 26.7854 16.3877 27.2393C17.6149 28.5013 17.9293 30.1004 18.4263 31.0198C19.3583 32.7364 20.8171 33.049 26.0903 31.5951C31.3635 30.1412 32.3239 29.1964 32.3311 27.3758C32.3375 26.1373 31.677 24.969 32.0819 23.2601C32.2284 22.6441 32.936 20.5418 33.3168 18.3209C33.5873 16.744 33.5973 15.0365 33.1888 13.555C31.6289 7.87458 25.3327 4.65444 19.1365 6.36282Z" fill="#FFD600"/>
<path d="M26.1533 31.8145C29.715 30.8325 32.4404 29.4495 32.2408 28.7255C32.0412 28.0015 28.9921 28.2106 25.4304 29.1926C21.8687 30.1746 19.1433 31.5576 19.3429 32.2817C19.5425 33.0057 22.5916 32.7965 26.1533 31.8145Z" fill="#B26500"/>
<path d="M26.1533 31.8145C29.715 30.8325 32.4404 29.4495 32.2408 28.7255C32.0412 28.0015 28.9921 28.2106 25.4304 29.1926C21.8687 30.1746 19.1433 31.5576 19.3429 32.2817C19.5425 33.0057 22.5916 32.7965 26.1533 31.8145Z" fill="#B26500"/>
<path d="M25.9587 31.1085C28.5545 30.3928 30.584 29.5415 30.4918 29.2071C30.3996 28.8727 28.2206 29.1818 25.6248 29.8975C23.0291 30.6132 20.9995 31.4645 21.0918 31.7989C21.184 32.1333 23.363 31.8242 25.9587 31.1085Z" fill="#FFA000"/>
<path d="M20.2679 22.7397C20.2121 23.2485 19.999 24.3225 20.3626 24.6777C21.2073 25.5044 22.6713 25.4803 22.9209 26.3856C23.3018 27.7671 23.5309 32.5209 23.5309 32.5209M26.3158 20.8951C26.3158 20.8951 27.3632 22.1245 27.2582 22.8334C27.1792 23.3613 26.1332 24.4657 26.0064 24.6366C25.4189 25.4312 28.0994 31.2644 28.0994 31.2644" stroke="#B26500" stroke-width="0.609807" stroke-miterlimit="10"/>
<path d="M20.2677 22.7401C20.7278 20.4625 19.9903 15.7572 18.7698 16.3436C16.7113 17.3318 21.4468 24.0913 22.5232 22.8678C23.5997 21.6443 23.5327 15.0462 21.5274 15.5738C19.5222 16.1013 23.8232 23.3728 24.9405 22.1254C25.8229 21.1389 26.7149 14.153 24.5633 14.7462C22.732 15.2511 26.3186 20.8947 26.3186 20.8947" stroke="white" stroke-width="0.609807" stroke-miterlimit="10"/>
<path d="M32.3015 29.0025C32.3015 29.0025 30.8337 30.2864 26.0926 31.5937C21.3514 32.9009 19.433 32.5505 19.433 32.5505C19.433 32.5505 19.7437 34.0905 20.2824 34.679C20.9296 35.3861 21.3316 35.5821 21.3316 35.5821L21.7389 36.3712L21.7291 36.6111C21.7174 36.9243 21.8696 37.2239 22.1348 37.3943L22.3347 37.5226L22.7272 38.281L22.713 38.4589C22.6864 38.7983 22.8577 39.1211 23.1518 39.2931L23.2951 39.3769L23.6147 39.9972C23.6147 39.9972 24.726 41.2976 28.4825 40.2618C32.239 39.2261 32.5269 37.54 32.5269 37.54L32.5232 37.4809L32.5786 37.3834C32.6901 37.1914 32.6785 36.9542 32.5499 36.7746L32.4742 36.6721L32.4165 35.7518L32.6437 35.3255C32.7563 35.1142 32.7235 34.8575 32.5639 34.6801L32.3367 34.4297L32.2811 33.5056L32.3736 33.3821C32.4943 33.1432 32.4179 32.8543 32.2871 32.6785C32.1854 32.5389 32.1838 32.3496 32.2727 32.2017C32.4093 31.9743 32.5736 31.6412 32.6584 31.2604C32.8343 30.4876 32.3015 29.0025 32.3015 29.0025Z" fill="#82AEC0"/>
<path d="M21.3313 35.5822L21.7226 36.382C23.4309 35.9015 25.7383 35.357 29.9288 33.4521C30.6701 33.0548 31.5214 32.4373 30.5126 32.8736C30.5118 32.8707 26.594 34.3652 21.3313 35.5822ZM22.711 38.2918C24.595 37.7376 28.4113 36.4829 32.3188 34.4346L32.2633 33.5106C28.1883 35.6968 24.1483 37.0005 22.3176 37.5305L22.711 38.2918ZM32.3979 35.7538C28.7804 37.6495 25.2389 38.8568 23.303 39.4412L23.5948 40.0059C23.5948 40.0059 24.1695 41.8495 28.5638 40.6379C32.9582 39.4264 32.5069 37.5487 32.5069 37.5487C32.5069 37.5487 30.7791 38.6007 28.3996 38.9753C28.3753 38.9822 28.3499 38.9843 28.3248 38.9814C28.2998 38.9784 28.2756 38.9706 28.2535 38.9583C28.209 38.9335 28.1762 38.8921 28.1623 38.8431C28.1483 38.7941 28.1544 38.7415 28.1792 38.697C28.204 38.6525 28.2455 38.6197 28.2945 38.6058C29.6228 38.0434 31.1943 37.3192 32.4555 36.6741L32.3979 35.7538Z" fill="#2F7889"/>
<path d="M19.4541 32.5449C19.4541 32.5449 21.5782 32.8385 26.0754 31.5986C30.5727 30.3586 32.2815 29.0082 32.2815 29.0082" stroke="#82AEC0" stroke-width="1.2187" stroke-miterlimit="10" stroke-linecap="round"/>
<path d="M15.4983 9.36384C16.5698 8.76479 17.8109 8.57441 18.9095 9.34687C19.2195 9.56503 19.4912 9.85068 19.6328 10.2038C19.9088 10.8836 19.6569 11.6679 19.2741 12.2984C18.1827 14.0985 16.2734 15.3524 15.851 17.5373C15.7516 18.0486 15.709 18.5823 15.4693 19.0437C15.2297 19.5051 14.724 19.8849 14.2153 19.7722C13.9461 19.7135 13.7204 19.5259 13.5241 19.3302C12.2793 18.073 11.8183 16.1601 12.1284 14.4173C12.4716 12.5072 13.7772 10.3255 15.4983 9.36384Z" fill="#FFFF8D"/>
<path d="M21.1037 33.6306C20.8126 33.5843 20.8085 33.168 21.0963 33.1108C22.0631 32.9233 23.699 32.5703 25.83 31.9827C28.0757 31.3636 30.0047 30.6514 31.1229 30.2103C31.3999 30.1023 31.6165 30.4632 31.3881 30.6559C30.6155 31.318 29.1213 32.2423 26.3348 33.0106C23.6159 33.7603 22.0058 33.7709 21.1037 33.6306Z" fill="#FFD600"/>
<path d="M23.5362 36.1548C23.3587 36.2797 23.1827 36.4326 23.133 36.6424C23.1164 36.7197 23.1168 36.8018 23.1526 36.8742C23.2069 36.9794 23.3317 37.0304 23.4483 37.052C23.6817 37.0952 23.9212 37.0577 24.1483 36.9982C24.6173 36.8752 25.0574 36.659 25.4945 36.4436C25.6254 36.379 25.7592 36.3137 25.864 36.212C25.9688 36.1104 26.043 35.9666 26.0255 35.8227C26.0039 35.6295 25.8221 35.4866 25.6362 35.443C24.9926 35.2884 24.0447 35.7964 23.5362 36.1548ZM24.5083 37.9711C24.3308 38.096 24.1547 38.2489 24.105 38.4587C24.0884 38.536 24.0889 38.6181 24.1247 38.6905C24.179 38.7957 24.3037 38.8467 24.4204 38.8683C24.6537 38.9115 24.8932 38.8739 25.1203 38.8145C25.5893 38.6915 26.0294 38.4753 26.4666 38.2598C26.5974 38.1953 26.7312 38.1299 26.836 38.0283C26.9409 37.9267 27.0151 37.7829 26.9976 37.639C26.9759 37.4457 26.7942 37.3029 26.6082 37.2593C25.9654 37.1076 25.0146 37.6165 24.5083 37.9711Z" fill="#94D1E0"/>
<path d="M21.5238 31.0696C21.7986 31.0223 22.0743 30.921 22.2609 30.7145C22.4475 30.5081 22.5105 30.1744 22.3497 29.9468C22.2662 29.8275 22.1342 29.75 22.0067 29.6776C21.7263 29.5209 21.4458 29.3642 21.1683 29.2066C20.8571 29.0299 20.5467 28.8562 20.2214 28.7087C19.7188 28.4803 19.0808 28.3115 18.6118 28.7097C18.2116 29.0477 18.2179 29.4951 18.5415 29.8771C19.2272 30.678 20.4659 31.2474 21.5238 31.0696Z" fill="#FFFF8D"/>
</g>
<defs>
<clipPath id="clip0_238_4747">
<rect width="39.0277" height="39.0277" fill="white" transform="translate(0 10.373) rotate(-15.4144)"/>
</clipPath>
</defs>
</svg>
