<svg width="28" height="28" viewBox="0 0 28 28" fill="none" xmlns="http://www.w3.org/2000/svg">
<g clip-path="url(#clip0_238_10004)">
<path d="M0 14C0 10.287 1.475 6.72601 4.10051 4.10051C6.72601 1.475 10.287 0 14 0C17.713 0 21.274 1.475 23.8995 4.10051C26.525 6.72601 28 10.287 28 14C28 17.713 26.525 21.274 23.8995 23.8995C21.274 26.525 17.713 28 14 28C10.287 28 6.72601 26.525 4.10051 23.8995C1.475 21.274 0 17.713 0 14ZM19.8328 10.2078C20.0878 9.93406 20.2266 9.57207 20.22 9.19804C20.2134 8.82401 20.0619 8.46715 19.7974 8.20263C19.5329 7.93811 19.176 7.78659 18.802 7.77999C18.4279 7.77339 18.0659 7.91223 17.7922 8.16725L8.16725 17.7922C7.91223 18.0659 7.77339 18.4279 7.77999 18.802C7.78659 19.176 7.93811 19.5329 8.20263 19.7974C8.46715 20.0619 8.82401 20.2134 9.19804 20.22C9.57207 20.2266 9.93406 20.0878 10.2078 19.8328L19.8328 10.2078Z" fill="#0072CF"/>
</g>
<defs>
<clipPath id="clip0_238_10004">
<rect width="28" height="28" fill="white"/>
</clipPath>
</defs>
</svg>
