<svg width="95" height="166" viewBox="0 0 95 166" fill="none" xmlns="http://www.w3.org/2000/svg">
<path d="M0.882538 161.086H31.8525L31.8525 109.346H0.882538L0.882538 161.086Z" fill="#B2B2B2"/>
<path d="M31.7302 161.086H62.7002L62.7002 109.346H31.7302L31.7302 161.086Z" fill="#D1D1D1"/>
<path d="M34.5124 60.4199L38.2424 78.2799L26.5924 79.7799C26.5924 79.7799 25.5824 61.2199 26.5924 61.1199C27.6024 61.0299 34.5124 60.4199 34.5124 60.4199Z" fill="#A8754B"/>
<path d="M23.6123 42.4805C23.6123 42.4805 35.2523 44.1205 37.3423 61.8305C37.3423 61.8305 33.6323 65.8205 28.9023 64.5905L23.6123 42.4805Z" fill="#FFD686"/>
<path d="M18.5624 41.8701C18.5624 41.8701 7.22245 40.7501 3.23245 48.7401C-0.767553 56.7301 10.8924 65.0501 6.89245 83.3601L32.0324 82.0301V65.8801C32.0324 65.8801 36.6124 59.2001 30.1224 52.0401C30.1224 52.0401 29.7324 41.1601 18.5624 41.8701Z" fill="#FFD686"/>
<path d="M55.9627 85.9509C55.9627 85.9509 64.1126 82.9309 66.3027 90.8409C68.4926 98.7409 77.5727 150.391 77.5727 150.391H70.2927L66.0127 129.861C66.0127 129.861 59.9727 123.131 58.1227 108.841L32.7227 105.811L55.9627 85.9509Z" fill="#B5845B"/>
<path d="M39.3024 104.849C39.3024 104.849 43.6224 104.729 51.2924 102.289C58.9624 99.8394 64.4324 102.429 61.4124 111.069C58.3924 119.699 43.1324 159.699 43.1324 159.699L37.3524 157.969L42.3424 132.069C42.3424 132.069 43.5124 119.219 48.9324 111.689C48.9324 111.689 37.5324 112.259 33.6324 111.659C29.7524 111.069 39.3024 104.849 39.3024 104.849Z" fill="#A8754B"/>
<path d="M6.8921 83.3593C6.8921 83.3593 -2.3279 94.9493 8.7621 106.329C8.7621 106.329 14.4721 112.979 39.6421 111.939C39.6421 111.939 46.2421 89.6593 60.2821 83.6693L31.2221 79.7793L6.8921 83.3593Z" fill="#0C2C40"/>
<path d="M19.1824 12.2802C19.1824 12.2802 22.1824 0.0702032 11.7924 0.000203166C4.10244 -0.0497968 1.81244 9.14018 11.2424 15.2902L19.1824 12.2802Z" fill="#190D08"/>
<path d="M10.8928 17.5105C10.8928 17.5105 9.0128 12.7105 14.3728 10.2805C19.7328 7.85052 21.4428 13.6005 21.4428 13.6005L10.8928 17.5105Z" fill="#FD6C75"/>
<path d="M31.2525 28.4299C31.2525 28.4299 38.9925 23.8499 30.6225 14.6499C25.3925 8.89989 16.2325 9.21987 11.1325 14.9199C6.03246 20.6199 10.8425 30.6699 10.8425 30.6699L14.3125 24.8999L17.3525 20.4199L21.7025 18.6799L25.1125 18.9199L28.0025 19.2899L30.3325 20.2699L31.2525 28.4299Z" fill="#27160C"/>
<path d="M24.9304 32.131L16.2314 31.0137L14.4708 44.7217L23.1697 45.839L24.9304 32.131Z" fill="#B5845B"/>
<path d="M15.3223 35.0898C15.3223 35.0898 16.2623 40.0798 20.2723 41.0898C21.5223 41.3998 22.8823 41.0398 23.6423 40.0098C23.8523 39.7298 24.0023 39.4098 24.0523 39.0498C24.2423 37.6098 20.4423 35.0898 20.4423 35.0898H15.3223Z" fill="#A8754B"/>
<path d="M21.4528 38.6398L21.0028 38.5798C16.0128 37.9398 12.4828 33.3698 13.1228 28.3798L13.6328 24.4198C14.2728 19.4298 18.8428 15.8998 23.8328 16.5398L24.2828 16.5998C29.2728 17.2398 32.8028 21.8098 32.1628 26.7998L31.6528 30.7598C31.0128 35.7498 26.4428 39.2798 21.4528 38.6398Z" fill="#B5845B"/>
<path d="M14.102 27.39C14.102 27.39 20.362 25.35 20.202 18.32C20.202 18.32 20.602 13.08 15.122 17.93C9.64198 22.78 14.102 27.39 14.102 27.39Z" fill="#27160C"/>
<path d="M15.4824 29.3097C15.2624 30.9897 13.7324 32.1797 12.0424 31.9597C10.3624 31.7397 9.17241 30.2097 9.39241 28.5297C9.61241 26.8497 11.1424 25.6597 12.8324 25.8797C14.5124 26.0897 15.7024 27.6297 15.4824 29.3097Z" fill="#B5845B"/>
<path d="M17.4925 23.8711L17.2125 26.0911C16.5725 29.2211 15.2525 28.2711 14.7725 26.9211L17.4925 23.8711Z" fill="#27160C"/>
<path d="M33.1225 22.7393C33.1225 22.7393 26.7325 27.5293 17.3625 20.4293C10.9025 15.5393 20.6725 13.7793 20.6725 13.7793L29.7825 15.6593L33.1225 22.7393Z" fill="#27160C"/>
<path d="M14.4824 44.7111C14.4824 44.7111 19.9524 54.4711 23.8324 51.4711C28.0224 48.2311 18.5624 41.8711 18.5624 41.8711L14.4824 44.7111Z" fill="#B5845B"/>
<path d="M16.9022 64.5898C16.9022 64.5898 20.2822 70.8198 22.5922 75.7098L47.2322 74.2898C47.2322 74.2898 52.1222 70.2898 55.9522 73.6698L52.1722 78.2098L21.3222 85.0398C20.1422 85.2998 18.9122 84.9598 18.0422 84.1398C15.3122 81.5598 9.37219 75.5498 6.49219 69.4198L16.9022 64.5898Z" fill="#B5845B"/>
<path d="M85.2923 54.9805H55.0123C54.0123 54.9805 53.1523 55.6805 52.9523 56.6505L47.2523 83.4005C46.9723 84.7105 47.9723 85.9505 49.3123 85.9505H80.1023C81.1123 85.9505 81.9823 85.2305 82.1723 84.2405L87.3723 57.4905C87.6123 56.1905 86.6123 54.9805 85.2923 54.9805Z" fill="#B2B2B2"/>
<path d="M87.0326 54.9805H56.7526C55.7526 54.9805 54.8926 55.6805 54.6926 56.6505L48.9926 83.4005C48.7126 84.7105 49.7126 85.9505 51.0526 85.9505H81.8426C82.8526 85.9505 83.7226 85.2305 83.9126 84.2405L89.1126 57.4905C89.3526 56.1905 88.3626 54.9805 87.0326 54.9805Z" fill="#D1D1D1"/>
<path d="M48.0527 83.6699H27.3627C26.7327 83.6699 26.2227 84.1799 26.2227 84.8099C26.2227 85.4399 26.7327 85.9499 27.3627 85.9499H48.4527L48.0527 83.6699Z" fill="#B2B2B2"/>
<path d="M68.2822 69.7707C68.2822 71.5907 69.7622 73.0707 71.5822 73.0707C73.4022 73.0707 74.8822 71.5907 74.8822 69.7707C74.8822 67.9507 73.4022 66.4707 71.5822 66.4707C69.7622 66.4707 68.2822 67.9407 68.2822 69.7707Z" fill="white"/>
<path d="M6.49224 44.851C6.08224 45.031 -7.48776 51.7011 5.86224 72.3711C5.86224 72.3711 14.3922 72.511 19.3322 66.161C19.3422 66.161 17.7022 39.931 6.49224 44.851Z" fill="#FFD686"/>
<path d="M35.7822 156.84C35.9622 156.3 36.5522 156.1 36.9522 156.45C37.7322 157.14 39.1322 157.99 41.1922 157.78C43.3422 157.57 44.1422 156.3 44.4522 155.39C44.6122 154.91 45.0722 154.67 45.4822 154.87L58.5022 161.41C59.2922 161.81 59.9122 162.55 60.2122 163.47C60.5022 164.34 59.9222 165.27 59.1022 165.25L36.6122 164.63C35.7222 164.61 35.0522 163.74 35.1222 162.73L35.4922 157.77C35.5022 157.69 35.5122 157.61 35.5422 157.53L35.7822 156.84Z" fill="#FD6C75"/>
<path d="M68.6123 148.28C68.6523 147.71 69.1623 147.36 69.6323 147.6C70.5623 148.06 72.1323 148.51 74.0723 147.77C76.0823 147 76.5323 145.57 76.5923 144.61C76.6223 144.11 77.0023 143.75 77.4523 143.84L91.7323 146.75C92.6023 146.93 93.3923 147.48 93.9323 148.29C94.4423 149.05 94.1223 150.1 93.3323 150.29L71.4623 155.58C70.6023 155.79 69.7223 155.13 69.5323 154.13L68.5923 149.25C68.5723 149.17 68.5723 149.09 68.5723 149L68.6123 148.28Z" fill="#FD6C75"/>
</svg>
